HIERARCHY
ROOT RootJoint
{
    OFFSET   0.000000   0.000000   0.000000
    CHANNELS 6 Xposition Yposition Zposition Xrotation Yrotation Zrotation
    JOINT pelvis_lowerback
    {
        OFFSET   0.000000   0.093605   0.000000
        CHANNELS 3 Xrotation Yrotation Zrotation
        JOINT lowerback_torso
        {
            OFFSET   0.000000   0.100000   0.000000
            CHANNELS 3 Xrotation Yrotation Zrotation
            JOINT torso_head
            {
                OFFSET   0.000000   0.282350   0.000000
                CHANNELS 3 Xrotation Yrotation Zrotation
                End Site
                {
                    OFFSET   0.000000   0.192650   0.000000
                }
            }
            JOINT rTorso_Clavicle
            {
                OFFSET  -0.001000   0.157500   0.000000
                CHANNELS 3 Xrotation Yrotation Zrotation
                JOINT rShoulder
                {
                    OFFSET  -0.117647   0.000000   0.000000
                    CHANNELS 3 Xrotation Yrotation Zrotation
                    JOINT rElbow
                    {
                        OFFSET  -0.245000   0.000000   0.000000
                        CHANNELS 3 Xrotation Yrotation Zrotation
                        JOINT rWrist
                        {
                            OFFSET  -0.240000   0.000000   0.000000
                            CHANNELS 3 Xrotation Yrotation Zrotation
                            End Site
                            {
                                OFFSET  -0.116353  -0.002500   0.000000
                            }
                        }
                    }
                }
            }
            JOINT lTorso_Clavicle
            {
                OFFSET   0.001000   0.157500   0.000000
                CHANNELS 3 Xrotation Yrotation Zrotation
                JOINT lShoulder
                {
                    OFFSET   0.117647   0.000000   0.000000
                    CHANNELS 3 Xrotation Yrotation Zrotation
                    JOINT lElbow
                    {
                        OFFSET   0.245000   0.000000   0.000000
                        CHANNELS 3 Xrotation Yrotation Zrotation
                        JOINT lWrist
                        {
                            OFFSET   0.240000   0.000000   0.000000
                            CHANNELS 3 Xrotation Yrotation Zrotation
                            End Site
                            {
                                OFFSET   0.116353  -0.002500   0.000000
                            }
                        }
                    }
                }
            }
        }
    }
    JOINT rHip
    {
        OFFSET  -0.100000  -0.051395   0.000000
        CHANNELS 3 Xrotation Yrotation Zrotation
        JOINT rKnee
        {
            OFFSET   0.000000  -0.410000   0.000000
            CHANNELS 3 Xrotation Yrotation Zrotation
            JOINT rAnkle
            {
                OFFSET   0.000000  -0.390000   0.000000
                CHANNELS 3 Xrotation Yrotation Zrotation
                JOINT rToeJoint
                {
                    OFFSET   0.000000  -0.050000   0.130000
                    CHANNELS 3 Xrotation Yrotation Zrotation
                    End Site
                    {
                        OFFSET  -0.010000   0.002000   0.060000
                    }
                }
            }
        }
    }
    JOINT lHip
    {
        OFFSET   0.100000  -0.051395   0.000000
        CHANNELS 3 Xrotation Yrotation Zrotation
        JOINT lKnee
        {
            OFFSET   0.000000  -0.410000   0.000000
            CHANNELS 3 Xrotation Yrotation Zrotation
            JOINT lAnkle
            {
                OFFSET   0.000000  -0.390000   0.000000
                CHANNELS 3 Xrotation Yrotation Zrotation
                JOINT lToeJoint
                {
                    OFFSET   0.000000  -0.050000   0.130000
                    CHANNELS 3 Xrotation Yrotation Zrotation
                    End Site
                    {
                        OFFSET   0.010000   0.002000   0.060000
                    }
                }
            }
        }
    }
}
MOTION
Frames: 10
Frame Time:   0.008333
 -2.312022   0.908860   3.776181 -12.664428  16.390799   4.931445  22.911006  -3.035590   0.411606  10.098264  -5.006112   4.467531   5.556924  -0.173233   2.031587   3.102741  -2.772326  14.809007   3.998283  -1.776925  39.532518  -0.001095  37.375876   0.004331   3.004781   5.823373 -15.324769   1.483371  -8.528862 -13.484056  -2.655094  -9.396485 -43.358690   0.000025 -43.871660   0.000085   2.907108  -5.799875  14.905079 -26.102454   1.339749  -7.892614  31.042111  -0.000904  -0.001493  -5.656807 -12.572035   5.393716  -3.363191  -0.002359  -0.001723   8.234015   3.890253  -1.051264  16.516594  -0.001000   0.001444 -12.103166  -0.490992  -0.541153  -0.345522   0.002734   0.000296
 -2.311696   0.909044   3.772185 -12.736504  15.882282   4.814630  23.176051  -3.111484   0.460902  10.019984  -4.929610   4.419021   5.545738  -0.245307   2.048579   2.963707  -2.641801  14.767503   3.645382  -1.845537  39.518747  -0.001406  37.560665   0.004767   2.901846   5.792307 -15.282491   1.467416  -8.555827 -13.367012  -2.647057  -9.401114 -43.423675  -0.000428 -43.717533  -0.000884   2.844923  -5.777524  14.786609 -26.783551   1.119411  -7.527808  31.838984  -0.003325  -0.005373  -6.230190 -12.595254   5.286240  -3.226659  -0.002196  -0.002132   8.126656   4.044936  -1.139362  16.549325  -0.000782   0.001042 -11.913945  -0.114323  -0.356349  -0.432749   0.002222   0.000240
 -2.311428   0.909246   3.768287 -12.818828  15.386410   4.674877  23.445291  -3.196549   0.534630   9.955759  -4.860996   4.387237   5.537566  -0.315732   2.069900   2.808200  -2.501360  14.713977   3.294998  -1.895251  39.488368  -0.001663  37.739836   0.005072   2.801141   5.774769 -15.293837   1.449632  -8.591395 -13.259561  -2.639986  -9.407925 -43.483880  -0.000796 -43.566878  -0.001679   2.775568  -5.708199  14.652854 -27.425399   0.897227  -7.153735  32.704205  -0.005421  -0.008576  -6.760636 -12.617762   5.185510  -3.108677  -0.001985  -0.002338   8.024589   4.194747  -1.189435  16.589623  -0.000608   0.000697 -11.732529   0.257736  -0.174506  -0.506749   0.001813   0.000195
 -2.311207   0.909451   3.764492 -12.895574  14.906473   4.528840  23.699982  -3.281311   0.614224   9.897002  -4.799111   4.364292   5.531768  -0.382287   2.092888   2.653999  -2.362909  14.656069   2.960586  -1.935478  39.452867  -0.001839  37.910630   0.005224   2.708967   5.775926 -15.327173   1.429910  -8.630338 -13.160455  -2.635438  -9.417763 -43.541241  -0.001047 -43.426643  -0.002238   2.708196  -5.634678  14.512254 -28.015454   0.682662  -6.797266  33.537904  -0.006866  -0.010739  -7.254561 -12.638168   5.091187  -3.000296  -0.001773  -0.002425   7.919691   4.342640  -1.222426  16.624290  -0.000473   0.000445 -11.553117   0.616891  -0.005664  -0.567934   0.001477   0.000158
 -2.311034   0.909649   3.760801 -12.964198  14.442284   4.383184  23.937927  -3.362864   0.693465   9.840531  -4.743027   4.345745   5.526831  -0.444645   2.115776   2.506588  -2.230418  14.597963   2.645503  -1.970392  39.416299  -0.001938  38.071657   0.005240   2.623288   5.787266 -15.368518   1.408499  -8.670383 -13.068134  -2.633421  -9.429734 -43.595297  -0.001199 -43.296943  -0.002593   2.645067  -5.567908  14.372879 -28.554992   0.478267  -6.466981  34.323964  -0.007726  -0.012056  -7.715334 -12.656629   5.002753  -2.901051  -0.001566  -0.002424   7.810097   4.488857  -1.245955  16.653254  -0.000369   0.000266 -11.375462   0.962095   0.149782  -0.618477   0.001203   0.000127
 -2.310910   0.909834   3.757214 -13.025208  13.992886   4.240333  24.159820  -3.440253   0.770099   9.786034  -4.691985   4.329779   5.522226  -0.502906   2.137769   2.367713  -2.105148  14.541620   2.350223  -2.001834  39.380311  -0.001972  38.222605   0.005149   2.542409   5.802761 -15.412351   1.385958  -8.710282 -12.981707  -2.633497  -9.442940 -43.645738  -0.001276 -43.176979  -0.002792   2.586186  -5.508991  14.238634 -29.046692   0.284755  -6.164781  35.061660  -0.008125  -0.012747  -8.145329 -12.673374   4.919824  -2.810120  -0.001367  -0.002364   7.696015   4.633499  -1.262516  16.678088  -0.000288   0.000138 -11.200176   1.293717   0.292616  -0.660424   0.000978   0.000103
 -2.310838   0.910006   3.753730 -13.079436  13.557202   4.101115  24.366812  -3.513215   0.843264   9.733809  -4.645357   4.315624   5.517807  -0.557282   2.158575   2.237807  -1.987429  14.487942   2.074235  -2.030743  39.345647  -0.001957  38.363679   0.004978   2.465353   5.819249 -15.456338   1.362907  -8.749266 -12.900646  -2.635136  -9.456706 -43.692577  -0.001298 -43.065872  -0.002874   2.531099  -5.456870  14.110905 -29.493636   0.102262  -5.890296  35.753241  -0.008179  -0.012990  -8.546614 -12.688604   4.842065  -2.726697  -0.001181  -0.002266   7.578005   4.776648  -1.272950  16.700035  -0.000225   0.000048 -11.027682   1.612498   0.423754  -0.695486   0.000795   0.000083
 -2.310814   0.910178   3.750316 -13.187769  13.209801   3.973016  24.611120  -3.643836   0.971006   9.722561  -4.657168   4.308593   5.473720  -0.619466   2.196282   2.120193  -1.814173  14.404376   1.701195  -2.099176  39.300431  -0.002339  38.596532   0.005556   2.354001   5.744187 -15.464852   1.327965  -8.822154 -12.791344  -2.647951  -9.470151 -43.734817  -0.001886 -42.743259  -0.004395   2.490177  -5.476706  14.008535 -30.101004  -0.078793  -5.664269  37.455360  -0.010178  -0.016450  -8.915369 -12.713220   4.667654  -2.619824  -0.000766  -0.002299   7.492536   4.817391  -1.276311  16.728837  -0.000172  -0.000048 -10.825574   1.945825   0.693823  -0.758500   0.000733   0.000067
 -2.310876   0.910425   3.747011 -13.295604  12.908003   3.814292  24.848701  -3.776459   1.136400   9.722031  -4.675956   4.325493   5.433023  -0.679801   2.238584   1.994839  -1.642101  14.308565   1.339052  -2.153832  39.240780  -0.002617  38.820674   0.005896   2.252033   5.699650 -15.509173   1.295221  -8.899036 -12.692061  -2.657828  -9.480586 -43.770882  -0.002274 -42.430078  -0.005509   2.434858  -5.420196  13.894989 -30.640392  -0.255939  -5.438026  39.244699  -0.011544  -0.018528  -9.248830 -12.737583   4.504717  -2.511588  -0.000383  -0.002281   7.407716   4.840319  -1.229195  16.742272  -0.000135  -0.000076 -10.616177   2.254776   0.947598  -0.817020   0.000675   0.000055
 -2.310982   0.910730   3.743760 -13.372704  12.619020   3.646183  25.062885  -3.897154   1.307289   9.715791  -4.690411   4.350140   5.394995  -0.736442   2.281340   1.870820  -1.476004  14.208147   0.994764  -2.200061  39.176094  -0.002775  39.032824   0.006012   2.158960   5.674957 -15.571601   1.265056  -8.971587 -12.599177  -2.666723  -9.490277 -43.804710  -0.002469 -42.136887  -0.006189   2.378090  -5.348424  13.780704 -31.114843  -0.423732  -5.233590  40.963605  -0.012195  -0.019647  -9.557648 -12.759515   4.352518  -2.409264  -0.000072  -0.002220   7.308947   4.859904  -1.162133  16.727698  -0.000109  -0.000022 -10.443777   2.552907   1.062749  -0.812621   0.000538   0.000044
